<?xml version="1.0" encoding="UTF-8"?>
<svg xmlns="http://www.w3.org/2000/svg" xmlns:xlink="http://www.w3.org/1999/xlink" width="1155px" height="1000px" viewBox="0 0 1155 1000" version="1.1">
<g id="surface1">
<path style=" stroke:none;fill-rule:nonzero;fill:rgb(100%,100%,100%);fill-opacity:1;" d="M 391.847656 170.859375 C 397.988281 171.34375 399.492188 172.609375 403.617188 176.25 C 405.410156 177.8125 405.410156 177.8125 407.246094 179.40625 C 410.890625 182.738281 414.527344 186.074219 418.101562 189.460938 C 422.679688 193.683594 427.425781 197.773438 432.164062 201.875 C 438.457031 207.328125 444.667969 212.804688 450.667969 218.476562 C 455.167969 222.597656 459.820312 226.605469 464.460938 230.625 C 470.753906 236.078125 476.964844 241.554688 482.964844 247.226562 C 487.464844 251.347656 492.117188 255.355469 496.757812 259.375 C 503.050781 264.828125 509.265625 270.304688 515.261719 275.976562 C 519.761719 280.097656 524.414062 284.105469 529.054688 288.125 C 535.429688 293.652344 541.742188 299.191406 547.824219 304.9375 C 554.242188 310.890625 560.902344 316.679688 567.503906 322.5 C 568.648438 321.566406 569.796875 320.632812 570.976562 319.671875 C 573.394531 317.710938 575.820312 315.75 578.257812 313.804688 C 584.078125 309.140625 589.585938 304.367188 594.910156 299.332031 C 599.511719 295.101562 604.273438 290.992188 609.027344 286.875 C 617.230469 279.78125 617.230469 279.78125 625.175781 272.5 C 631.304688 266.707031 637.796875 261.183594 644.226562 255.609375 C 648.71875 251.707031 653.1875 247.804688 657.472656 243.75 C 663.601562 237.957031 670.09375 232.433594 676.523438 226.859375 C 681.015625 222.957031 685.484375 219.054688 689.769531 215 C 694.980469 210.074219 700.453125 205.359375 705.917969 200.625 C 714.4375 193.246094 714.4375 193.246094 722.738281 185.703125 C 723.527344 184.96875 724.316406 184.238281 725.132812 183.480469 C 726.847656 181.828125 728.515625 180.140625 730.152344 178.433594 C 736.980469 171.523438 736.980469 171.523438 743.117188 170.15625 C 749.234375 171.703125 750.34375 174.335938 753.59375 178.75 C 755.339844 181.664062 756.980469 184.550781 758.550781 187.523438 C 759.238281 188.796875 759.238281 188.796875 759.9375 190.09375 C 760.929688 191.933594 761.917969 193.773438 762.902344 195.613281 C 765.609375 200.667969 768.347656 205.710938 771.089844 210.75 C 771.953125 212.339844 771.953125 212.339844 772.832031 213.960938 C 779.347656 225.910156 786.121094 237.761719 792.910156 249.609375 C 795.390625 253.941406 797.867188 258.269531 800.347656 262.601562 C 800.949219 263.65625 801.550781 264.707031 802.171875 265.792969 C 808.886719 277.539062 815.472656 289.328125 822.050781 301.121094 C 822.980469 302.792969 823.914062 304.464844 824.84375 306.136719 C 825.304688 306.964844 825.765625 307.789062 826.242188 308.640625 C 829.648438 314.75 833.082031 320.851562 836.523438 326.949219 C 847.523438 346.433594 858.386719 365.964844 869.042969 385.574219 C 875.816406 398.023438 882.75 410.394531 889.910156 422.699219 C 898.179688 436.921875 906.394531 451.167969 914.355469 465.507812 C 915.40625 467.394531 916.46875 469.277344 917.539062 471.15625 C 919.023438 473.761719 920.46875 476.378906 921.910156 479 C 922.746094 480.492188 923.582031 481.984375 924.441406 483.523438 C 925.84375 487.5 925.84375 487.5 924.9375 491.078125 C 922.769531 493.75 922.769531 493.75 919.945312 494.925781 C 915.621094 495.023438 913.335938 494.066406 909.523438 492.414062 C 908.128906 491.816406 906.738281 491.21875 905.300781 490.605469 C 903.800781 489.941406 902.304688 489.277344 900.757812 488.59375 C 898.394531 487.570312 898.394531 487.570312 895.980469 486.523438 C 883.84375 481.234375 871.855469 475.730469 859.902344 470.175781 C 846.6875 464.058594 833.285156 458.257812 819.847656 452.476562 C 804.980469 446.078125 790.261719 439.507812 775.671875 432.699219 C 774.355469 432.085938 773.035156 431.472656 771.679688 430.839844 C 770.554688 430.3125 769.429688 429.785156 768.273438 429.242188 C 762.945312 426.867188 757.503906 424.683594 752.058594 422.5 C 752.050781 423.351562 752.046875 424.207031 752.039062 425.085938 C 751.976562 433.945312 751.871094 442.804688 751.738281 451.667969 C 751.695312 454.976562 751.660156 458.285156 751.640625 461.59375 C 751.609375 466.34375 751.535156 471.09375 751.457031 475.84375 C 751.453125 477.328125 751.453125 478.8125 751.449219 480.34375 C 751.421875 481.71875 751.390625 483.09375 751.359375 484.511719 C 751.34375 485.726562 751.332031 486.9375 751.316406 488.1875 C 750.519531 491.25 750.519531 491.25 747.632812 493.589844 C 744.367188 495 744.367188 495 740.496094 494.269531 C 736.558594 492.445312 733.988281 490.664062 730.921875 487.957031 C 729.367188 486.601562 729.367188 486.601562 727.78125 485.214844 C 726.71875 484.265625 725.660156 483.320312 724.566406 482.34375 C 723.519531 481.425781 722.46875 480.507812 721.386719 479.5625 C 716.367188 475.144531 711.433594 470.679688 706.578125 466.140625 C 701.371094 461.277344 695.980469 456.566406 690.539062 451.875 C 684.246094 446.421875 678.03125 440.945312 672.035156 435.273438 C 666.609375 430.300781 660.96875 425.488281 655.375 420.640625 C 649.710938 415.722656 644.152344 410.753906 638.757812 405.640625 C 636.925781 403.945312 634.949219 402.355469 632.960938 400.78125 C 630.558594 398.75 630.558594 398.75 630.558594 396.25 C 629.542969 396.25 628.527344 396.25 627.484375 396.25 C 627.082031 397.292969 626.683594 398.335938 626.269531 399.414062 C 624.242188 404.132812 621.792969 408.625 619.199219 413.148438 C 618.429688 414.507812 618.429688 414.507812 617.640625 415.890625 C 615.960938 418.851562 614.273438 421.808594 612.585938 424.765625 C 610.214844 428.921875 607.84375 433.082031 605.476562 437.242188 C 604.875 438.296875 604.277344 439.351562 603.65625 440.441406 C 599.578125 447.628906 595.597656 454.851562 591.671875 462.09375 C 590.132812 464.917969 588.589844 467.742188 587.046875 470.566406 C 586.070312 472.367188 585.101562 474.171875 584.140625 475.976562 C 582.804688 478.488281 581.441406 480.988281 580.070312 483.484375 C 579.3125 484.902344 578.550781 486.316406 577.769531 487.773438 C 574.84375 491.71875 572.785156 493.339844 567.503906 495 C 564.3125 494.574219 564.3125 494.574219 561.351562 492.5 C 559.148438 489.351562 557.296875 486.339844 555.507812 483.042969 C 554.960938 482.074219 554.417969 481.105469 553.859375 480.109375 C 552.074219 476.929688 550.320312 473.738281 548.566406 470.546875 C 547.34375 468.347656 546.117188 466.148438 544.886719 463.949219 C 542.375 459.445312 539.867188 454.933594 537.371094 450.421875 C 533.878906 444.117188 530.332031 437.835938 526.773438 431.558594 C 525.183594 428.753906 523.597656 425.949219 522.015625 423.144531 C 521.007812 421.371094 520.003906 419.59375 518.996094 417.820312 C 517.597656 415.355469 516.207031 412.890625 514.824219 410.421875 C 514.039062 409.035156 513.257812 407.648438 512.453125 406.222656 C 510.777344 402.859375 509.746094 399.820312 509.0625 396.25 C 502.722656 400.269531 497.511719 404.507812 492.300781 409.472656 C 488.367188 413.15625 484.304688 416.734375 480.226562 420.3125 C 478.621094 421.71875 477.015625 423.128906 475.414062 424.535156 C 474.613281 425.238281 473.8125 425.9375 472.992188 426.660156 C 464.21875 434.367188 455.492188 442.105469 446.871094 449.921875 C 441.507812 454.78125 436.082031 459.585938 430.625 464.375 C 416.207031 476.984375 416.207031 476.984375 402.460938 490.078125 C 397.359375 494.613281 397.359375 494.613281 392.175781 495 C 390.148438 494.175781 388.117188 493.351562 386.023438 492.5 C 386.023438 468.988281 386.023438 445.476562 386.023438 421.25 C 363.679688 430.949219 341.359375 440.652344 319.253906 450.699219 C 296.375 461.066406 273.417969 471.324219 250.398438 481.484375 C 248.210938 482.453125 248.210938 482.453125 245.976562 483.4375 C 241.917969 485.226562 237.847656 486.992188 233.769531 488.75 C 232.355469 489.375 230.941406 490 229.488281 490.640625 C 228.117188 491.230469 226.75 491.816406 225.339844 492.421875 C 224.117188 492.953125 222.894531 493.484375 221.636719 494.03125 C 218.390625 495 218.390625 495 213.582031 493.515625 C 212.632812 492.769531 211.679688 492.019531 210.699219 491.25 C 211.503906 484.03125 214.0625 478.515625 217.914062 472.015625 C 218.492188 471.015625 219.074219 470.011719 219.671875 468.976562 C 220.917969 466.820312 222.171875 464.664062 223.433594 462.511719 C 226.804688 456.746094 230.132812 450.964844 233.460938 445.1875 C 234.140625 444.011719 234.816406 442.835938 235.515625 441.628906 C 241.921875 430.503906 248.0625 419.289062 254.144531 408.046875 C 262.199219 393.195312 270.492188 378.457031 279.035156 363.785156 C 286.613281 350.757812 293.898438 337.640625 301.054688 324.453125 C 309.972656 308.015625 319.125 291.675781 328.449219 275.390625 C 330.921875 271.070312 333.394531 266.75 335.867188 262.425781 C 336.46875 261.375 337.070312 260.324219 337.691406 259.242188 C 343.546875 248.996094 349.328125 238.722656 355.074219 228.4375 C 355.535156 227.609375 356 226.78125 356.476562 225.929688 C 361.636719 216.691406 366.757812 207.445312 371.847656 198.183594 C 372.316406 197.332031 372.785156 196.476562 373.269531 195.597656 C 375.503906 191.53125 377.734375 187.464844 379.957031 183.398438 C 380.734375 181.980469 381.511719 180.5625 382.3125 179.101562 C 382.996094 177.851562 383.679688 176.601562 384.382812 175.316406 C 386.710938 171.328125 386.710938 171.328125 391.847656 170.859375 Z M 384.488281 203.75 C 383.894531 204.84375 383.300781 205.941406 382.691406 207.066406 C 370.445312 229.679688 357.996094 252.207031 345.171875 274.609375 C 344.558594 275.6875 343.941406 276.761719 343.304688 277.875 C 342.6875 278.949219 342.070312 280.027344 341.4375 281.136719 C 332.871094 296.097656 324.410156 311.09375 316.03125 326.121094 C 315.101562 327.792969 314.167969 329.464844 313.238281 331.136719 C 312.777344 331.964844 312.316406 332.789062 311.84375 333.640625 C 308.433594 339.75 305 345.851562 301.558594 351.949219 C 290.058594 372.316406 278.695312 392.730469 267.554688 413.230469 C 262.332031 422.824219 257.050781 432.386719 251.648438 441.914062 C 250.828125 443.359375 250.828125 443.359375 249.996094 444.832031 C 247.386719 449.445312 244.765625 454.050781 242.121094 458.652344 C 241.191406 460.289062 240.265625 461.925781 239.335938 463.5625 C 238.519531 464.992188 237.703125 466.421875 236.859375 467.894531 C 236.347656 469 235.835938 470.109375 235.304688 471.25 C 235.8125 472.074219 236.320312 472.898438 236.84375 473.75 C 257.148438 464.988281 277.441406 456.226562 297.402344 446.953125 C 312.984375 439.714844 328.777344 432.828125 344.648438 426.023438 C 358.589844 420.03125 372.265625 413.789062 386.023438 407.5 C 386.023438 340.261719 386.023438 273.023438 386.023438 203.75 C 385.519531 203.75 385.011719 203.75 384.488281 203.75 Z M 735.140625 203.75 C 734.578125 204.757812 734.015625 205.765625 733.4375 206.800781 C 722.558594 226.300781 711.644531 245.785156 700.632812 265.234375 C 673.53125 313.050781 673.53125 313.050781 647.476562 361.25 C 657.640625 366.578125 668.140625 371.242188 678.8125 375.859375 C 692.214844 381.6875 705.574219 387.5625 718.824219 393.613281 C 719.839844 394.078125 720.855469 394.539062 721.898438 395.015625 C 722.757812 395.40625 723.613281 395.800781 724.496094 396.203125 C 728.507812 397.964844 732.601562 399.59375 736.679688 401.25 C 736.679688 336.074219 736.679688 270.898438 736.679688 203.75 C 736.171875 203.75 735.664062 203.75 735.140625 203.75 Z M 399.867188 205 C 399.867188 269.351562 399.867188 333.699219 399.867188 400 C 407.503906 397.929688 413.828125 395.550781 420.726562 392.34375 C 423.148438 391.234375 425.574219 390.121094 428 389.015625 C 429.359375 388.390625 430.722656 387.765625 432.125 387.121094 C 440.523438 383.289062 448.960938 379.511719 457.394531 375.734375 C 460.390625 374.390625 463.386719 373.042969 466.378906 371.699219 C 468.25 370.859375 470.121094 370.019531 471.996094 369.179688 C 473.65625 368.433594 475.316406 367.6875 477.023438 366.921875 C 480.496094 365.386719 483.980469 363.910156 487.53125 362.5 C 486.535156 357.265625 484.378906 352.957031 481.660156 348.15625 C 481.21875 347.367188 480.777344 346.582031 480.320312 345.769531 C 478.855469 343.167969 477.375 340.566406 475.898438 337.96875 C 474.855469 336.121094 473.816406 334.277344 472.773438 332.429688 C 470.59375 328.558594 468.410156 324.691406 466.21875 320.828125 C 463.0625 315.25 459.917969 309.667969 456.78125 304.082031 C 455.773438 302.28125 454.761719 300.480469 453.75 298.683594 C 453 297.347656 453 297.347656 452.234375 295.984375 C 449.679688 291.441406 447.125 286.898438 444.570312 282.359375 C 444.058594 281.453125 443.550781 280.546875 443.023438 279.613281 C 439.8125 273.90625 436.597656 268.199219 433.378906 262.492188 C 411.027344 222.828125 411.027344 222.828125 401.40625 205 C 400.898438 205 400.390625 205 399.867188 205 Z M 750.519531 205 C 750.519531 271.824219 750.519531 338.648438 750.519531 407.5 C 799.539062 429.636719 799.539062 429.636719 848.820312 451.382812 C 858.800781 455.742188 868.746094 460.136719 878.648438 464.609375 C 880.304688 465.355469 880.304688 465.355469 881.992188 466.117188 C 886.339844 468.089844 890.628906 470.078125 894.863281 472.210938 C 897.972656 473.957031 897.972656 473.957031 901.238281 473.75 C 898.996094 467.902344 896.132812 462.394531 892.953125 456.851562 C 892.441406 455.949219 891.929688 455.042969 891.398438 454.113281 C 890.292969 452.167969 889.1875 450.222656 888.078125 448.28125 C 885.097656 443.058594 882.132812 437.828125 879.167969 432.601562 C 878.5625 431.539062 877.957031 430.476562 877.335938 429.378906 C 871.636719 419.34375 866.003906 409.285156 860.386719 399.21875 C 854.582031 388.816406 848.765625 378.414062 842.90625 368.03125 C 832.050781 348.804688 821.332031 329.542969 810.816406 310.191406 C 801.738281 293.503906 792.34375 276.941406 782.867188 260.402344 C 772.335938 242.027344 762.058594 223.570312 752.058594 205 C 751.550781 205 751.042969 205 750.519531 205 Z M 419.859375 210 C 421.398438 212.5 421.398438 212.5 421.398438 212.5 Z M 713.609375 211.25 C 708.230469 215.902344 702.859375 220.5625 697.503906 225.234375 C 696.140625 226.421875 696.140625 226.421875 694.75 227.632812 C 691.203125 230.777344 687.761719 233.992188 684.339844 237.226562 C 678.902344 242.207031 673.25 247.03125 667.644531 251.890625 C 663.148438 255.792969 658.683594 259.695312 654.398438 263.75 C 648.269531 269.542969 641.777344 275.066406 635.347656 280.640625 C 630.851562 284.542969 626.386719 288.445312 622.101562 292.5 C 616.890625 297.425781 611.417969 302.140625 605.953125 306.875 C 592.3125 318.667969 592.3125 318.667969 579.808594 331.25 C 591.140625 336.90625 602.699219 342.148438 614.410156 347.265625 C 616.074219 347.996094 617.742188 348.726562 619.457031 349.480469 C 627.273438 352.929688 627.273438 352.929688 635.171875 356.25 C 635.789062 355.152344 636.40625 354.058594 637.042969 352.929688 C 645.683594 337.566406 654.324219 322.203125 662.964844 306.839844 C 663.472656 305.933594 663.980469 305.03125 664.503906 304.097656 C 665.519531 302.292969 666.535156 300.488281 667.550781 298.683594 C 670.070312 294.203125 672.59375 289.722656 675.113281 285.238281 C 679.898438 276.730469 684.683594 268.222656 689.472656 259.714844 C 691.722656 255.71875 693.972656 251.722656 696.222656 247.726562 C 697.289062 245.832031 698.355469 243.9375 699.421875 242.042969 C 701.8125 237.800781 704.195312 233.558594 706.570312 229.316406 C 708.0625 226.65625 709.574219 224.003906 711.105469 221.359375 C 712.539062 218.855469 713.859375 216.308594 715.144531 213.75 C 714.386719 212.511719 714.386719 212.511719 713.609375 211.25 Z M 421.398438 212.5 C 423.566406 218.117188 426.253906 223.433594 429.292969 228.765625 C 429.765625 229.605469 430.242188 230.445312 430.730469 231.3125 C 432.292969 234.078125 433.863281 236.84375 435.433594 239.609375 C 436.539062 241.570312 437.648438 243.527344 438.753906 245.488281 C 441.054688 249.558594 443.355469 253.628906 445.660156 257.695312 C 450.414062 266.105469 455.144531 274.519531 459.875 282.9375 C 461.382812 285.625 462.894531 288.3125 464.40625 290.996094 C 469.234375 299.570312 474.054688 308.148438 478.855469 316.730469 C 481.132812 320.796875 483.410156 324.867188 485.691406 328.933594 C 486.78125 330.878906 487.867188 332.828125 488.957031 334.773438 C 490.460938 337.46875 491.96875 340.160156 493.476562 342.851562 C 494.144531 344.050781 494.144531 344.050781 494.824219 345.273438 C 496.769531 348.734375 498.765625 351.820312 501.371094 355 C 510.609375 352.164062 519.179688 348.277344 527.871094 344.507812 C 530.882812 343.203125 533.902344 341.914062 536.921875 340.621094 C 538.839844 339.792969 540.757812 338.960938 542.675781 338.128906 C 544.414062 337.378906 546.152344 336.628906 547.945312 335.855469 C 552.453125 333.910156 552.453125 333.910156 555.199219 330 C 554.140625 329.0625 553.078125 328.125 551.984375 327.15625 C 545.109375 321.074219 538.242188 314.980469 531.457031 308.828125 C 525.308594 303.257812 519.070312 297.761719 512.816406 292.269531 C 507.070312 287.21875 501.398438 282.117188 495.75 276.992188 C 491.507812 273.175781 487.214844 269.398438 482.917969 265.625 C 476.367188 259.875 469.886719 254.078125 463.453125 248.242188 C 458.429688 243.726562 453.339844 239.261719 448.25 234.796875 C 442.246094 229.527344 436.355469 224.179688 430.53125 218.78125 C 427.675781 216.355469 424.769531 214.421875 421.398438 212.5 Z M 565.964844 342.5 C 564.941406 343.410156 563.914062 344.316406 562.859375 345.253906 C 562.183594 345.855469 561.507812 346.453125 560.808594 347.070312 C 559.292969 348.417969 557.773438 349.761719 556.257812 351.109375 C 552.390625 354.539062 548.519531 357.96875 544.644531 361.398438 C 535.800781 369.222656 527.011719 377.085938 518.289062 385 C 520.5625 390.945312 523.5 396.53125 526.734375 402.164062 C 527.261719 403.089844 527.789062 404.015625 528.332031 404.96875 C 530.042969 407.976562 531.757812 410.980469 533.476562 413.984375 C 535.847656 418.148438 538.21875 422.3125 540.582031 426.480469 C 541.171875 427.519531 541.761719 428.554688 542.371094 429.625 C 546.0625 436.144531 549.6875 442.6875 553.234375 449.261719 C 553.664062 450.054688 554.09375 450.851562 554.535156 451.667969 C 556.523438 455.351562 558.5 459.039062 560.457031 462.734375 C 561.148438 464.019531 561.835938 465.300781 562.546875 466.621094 C 563.136719 467.734375 563.726562 468.847656 564.335938 469.992188 C 565.714844 472.699219 565.714844 472.699219 569.042969 473.75 C 574.140625 464.753906 579.242188 455.757812 584.316406 446.753906 C 585.207031 445.171875 585.207031 445.171875 586.117188 443.5625 C 587.332031 441.40625 588.546875 439.25 589.761719 437.09375 C 593.210938 430.976562 596.6875 424.875 600.1875 418.777344 C 602.222656 415.234375 604.238281 411.683594 606.253906 408.132812 C 607.203125 406.46875 608.160156 404.804688 609.121094 403.144531 C 610.460938 400.839844 611.769531 398.527344 613.078125 396.210938 C 613.820312 394.914062 614.566406 393.617188 615.332031 392.28125 C 616.878906 388.335938 616.808594 386.390625 615.179688 382.5 C 612.042969 379.394531 612.042969 379.394531 608.066406 376.484375 C 603.394531 372.835938 598.824219 369.234375 594.609375 365.234375 C 589.632812 360.53125 584.558594 355.914062 579.421875 351.328125 C 578.222656 350.238281 578.222656 350.238281 577 349.128906 C 572.257812 344.90625 572.257812 344.90625 565.964844 342.5 Z M 516.558594 361.875 C 514.03125 363.09375 514.03125 363.09375 511.453125 364.335938 C 510.15625 364.96875 508.859375 365.597656 507.523438 366.25 C 508.539062 368.726562 509.554688 371.199219 510.597656 373.75 C 518.179688 368.902344 523.738281 364.046875 529.054688 357.5 C 524.109375 357.5 520.75 359.84375 516.558594 361.875 Z M 605.953125 357.5 C 606.527344 358.042969 607.105469 358.589844 607.699219 359.148438 C 612.808594 363.984375 617.867188 368.847656 622.871094 373.75 C 626.328125 371.183594 627.488281 369.992188 629.019531 366.25 C 625.757812 364.785156 622.488281 363.328125 619.21875 361.875 C 618.289062 361.457031 617.359375 361.039062 616.40625 360.609375 C 611.46875 358.265625 611.46875 358.265625 605.953125 357.5 Z M 485.011719 375.484375 C 483.539062 376.132812 482.0625 376.785156 480.546875 377.453125 C 478.949219 378.164062 477.351562 378.875 475.707031 379.609375 C 474.0625 380.335938 472.421875 381.066406 470.726562 381.816406 C 457.855469 387.535156 445.066406 393.363281 432.324219 399.277344 C 421.589844 404.25 410.757812 408.984375 399.867188 413.75 C 399.867188 433.136719 399.867188 452.523438 399.867188 472.5 C 408.996094 466.171875 408.996094 466.171875 417.074219 459.296875 C 422.539062 454.261719 428.082031 449.296875 433.703125 444.375 C 439.125 439.613281 444.519531 434.832031 449.851562 430 C 455.179688 425.167969 460.574219 420.386719 466 415.625 C 472.695312 409.742188 479.371094 403.84375 485.914062 397.847656 C 488.015625 395.949219 490.167969 394.089844 492.367188 392.269531 C 498.394531 387.429688 498.394531 387.429688 499.929688 380.9375 C 498.535156 378.003906 497.152344 375.222656 495.21875 372.5 C 491.019531 372.5 488.707031 373.847656 485.011719 375.484375 Z M 641.324219 372.5 C 638.851562 375.730469 636.703125 378.894531 635.171875 382.5 C 637.246094 387.816406 642.839844 391.355469 647.6875 395.179688 C 650.351562 397.339844 652.816406 399.554688 655.261719 401.875 C 660.699219 407.007812 666.382812 411.9375 672.082031 416.875 C 678.378906 422.328125 684.589844 427.804688 690.585938 433.476562 C 695.089844 437.597656 699.742188 441.605469 704.378906 445.625 C 713.304688 453.363281 722.058594 461.167969 730.332031 469.375 C 731.953125 470.921875 731.953125 470.921875 733.601562 472.5 C 734.109375 472.5 734.617188 472.5 735.140625 472.5 C 735.675781 465.09375 736.117188 457.691406 736.472656 450.277344 C 736.613281 447.53125 736.773438 444.785156 736.949219 442.039062 C 737.210938 437.820312 737.382812 433.601562 737.542969 429.375 C 737.640625 428.039062 737.738281 426.707031 737.835938 425.332031 C 738.199219 418.671875 738.199219 418.671875 734.546875 413.011719 C 731.265625 411.292969 727.941406 410.039062 724.375 408.75 C 721.375 407.429688 718.382812 406.09375 715.398438 404.75 C 712.046875 403.292969 708.695312 401.839844 705.34375 400.390625 C 693.175781 395.101562 681.042969 389.78125 669.007812 384.296875 C 659.902344 380.152344 650.746094 376.15625 641.324219 372.5 Z M 641.324219 372.5 "/>
<path style=" stroke:none;fill-rule:nonzero;fill:rgb(100%,100%,100%);fill-opacity:1;" d="M 210.699219 575 C 220.847656 575 231 575 241.457031 575 C 250.3125 589.222656 258.753906 603.558594 266.929688 618.046875 C 268.128906 620.164062 269.324219 622.28125 270.523438 624.394531 C 273.570312 629.78125 276.609375 635.171875 279.648438 640.5625 C 281.417969 643.703125 283.191406 646.839844 284.964844 649.980469 C 287.710938 654.832031 290.445312 659.6875 293.175781 664.542969 C 294.195312 666.351562 295.214844 668.160156 296.234375 669.964844 C 297.644531 672.457031 299.042969 674.953125 300.441406 677.445312 C 301.625 679.554688 301.625 679.554688 302.835938 681.703125 C 304.515625 685 304.515625 685 304.515625 687.5 C 305.527344 687.5 306.542969 687.5 307.589844 687.5 C 307.976562 686.480469 308.363281 685.457031 308.761719 684.40625 C 310.980469 679.269531 313.699219 674.429688 316.546875 669.507812 C 317.128906 668.492188 317.710938 667.476562 318.3125 666.429688 C 319.5625 664.246094 320.816406 662.066406 322.070312 659.882812 C 325.386719 654.121094 328.6875 648.355469 331.988281 642.585938 C 332.652344 641.425781 333.320312 640.261719 334.007812 639.0625 C 341.300781 626.304688 348.449219 613.492188 355.558594 600.667969 C 360.367188 592.011719 365.335938 583.460938 370.644531 575 C 380.796875 575 390.945312 575 401.40625 575 C 401.40625 631.511719 401.40625 688.023438 401.40625 746.25 C 391.253906 746.25 381.105469 746.25 370.644531 746.25 C 370.136719 711.1875 369.628906 676.125 369.109375 640 C 351.269531 670.8125 351.269531 670.8125 333.925781 701.796875 C 332.566406 704.28125 331.199219 706.761719 329.832031 709.242188 C 328.648438 711.390625 327.46875 713.539062 326.292969 715.6875 C 324.507812 718.75 324.507812 718.75 322.96875 720 C 320.457031 720.109375 317.933594 720.132812 315.417969 720.121094 C 313.894531 720.117188 312.375 720.113281 310.808594 720.109375 C 309.207031 720.097656 307.605469 720.089844 305.957031 720.078125 C 304.347656 720.074219 302.742188 720.066406 301.085938 720.0625 C 297.101562 720.046875 293.117188 720.027344 289.132812 720 C 286.265625 715.058594 283.40625 710.117188 280.546875 705.175781 C 279.585938 703.515625 278.625 701.859375 277.660156 700.203125 C 265.828125 679.820312 254.472656 659.269531 242.996094 638.75 C 242.488281 674.226562 241.980469 709.699219 241.457031 746.25 C 231.308594 746.25 221.15625 746.25 210.699219 746.25 C 210.699219 689.738281 210.699219 633.226562 210.699219 575 Z M 210.699219 575 "/>
<path style=" stroke:none;fill-rule:nonzero;fill:rgb(100%,100%,100%);fill-opacity:1;" d="M 473.6875 575 C 580.625 575 580.625 575 612.105469 600 C 633.824219 620.136719 643 642.894531 640.996094 669.359375 C 637.402344 692.140625 624.136719 712.75 602.300781 727.460938 C 562.628906 751.023438 523.285156 746.25 473.6875 746.25 C 473.6875 689.738281 473.6875 633.226562 473.6875 575 Z M 502.910156 600 C 502.910156 639.601562 502.910156 679.199219 502.910156 720 C 549.554688 720.949219 549.554688 720.949219 587.113281 703.359375 C 602.230469 690.117188 609.652344 674.398438 609.027344 656.25 C 606.65625 639.40625 598.316406 625.25 582.882812 613.75 C 558.183594 598.128906 535.097656 600 502.910156 600 Z M 502.910156 600 "/>
<path style=" stroke:none;fill-rule:nonzero;fill:rgb(100%,100%,100%);fill-opacity:1;" d="M 919.695312 586.25 C 932.914062 594.546875 939.738281 606.863281 942.414062 620.046875 C 942.921875 625.433594 942.761719 630.847656 942.761719 636.25 C 932.613281 636.25 922.460938 636.25 912.003906 636.25 C 911.625 633.570312 911.242188 630.886719 910.851562 628.125 C 909.144531 618.648438 907.265625 611.21875 897.683594 605.15625 C 887.273438 599.84375 876.34375 599.082031 864.328125 600 C 857.335938 601.339844 850.570312 603.324219 844.335938 606.25 C 842.417969 609.261719 842.417969 609.261719 841.257812 612.5 C 840.75 613.738281 840.242188 614.976562 839.71875 616.25 C 839.171875 623.160156 839.304688 626.707031 844.335938 632.5 C 844.335938 633.324219 844.335938 634.148438 844.335938 635 C 850.101562 636.925781 855.917969 638.625 861.828125 640.234375 C 862.796875 640.5 863.769531 640.765625 864.769531 641.039062 C 871.101562 642.746094 877.46875 644.328125 883.875 645.839844 C 929.105469 656.535156 929.105469 656.535156 940.457031 671.867188 C 948.96875 685.117188 949.695312 698.785156 944.257812 713.085938 C 937.8125 726.722656 926.265625 734.921875 910.214844 740.976562 C 888.875 748.429688 864.160156 747.652344 842.507812 741.25 C 823.578125 734.171875 813.296875 722.792969 805.886719 707.5 C 801.945312 698.496094 802.5625 689.472656 802.808594 680 C 812.960938 680 823.109375 680 833.570312 680 C 833.917969 682.628906 834.265625 685.257812 834.625 687.96875 C 836.367188 697.765625 839.441406 706.769531 848.660156 713.671875 C 861.949219 720.660156 875.09375 721.871094 890.582031 719.179688 C 900.1875 716.710938 906.953125 713.472656 912.003906 706.25 C 915.335938 700.191406 915.6875 694.859375 913.257812 688.519531 C 909.207031 681.195312 900.675781 677.96875 892.011719 675 C 885.339844 673.210938 878.589844 671.6875 871.824219 670.15625 C 824.574219 659.074219 824.574219 659.074219 812.101562 642.777344 C 805.140625 630.71875 804.867188 615.363281 810.34375 602.84375 C 818.015625 589.96875 830.707031 582.210938 846.804688 577.203125 C 871.503906 570.816406 898.789062 574.160156 919.695312 586.25 Z M 919.695312 586.25 "/>
<path style=" stroke:none;fill-rule:nonzero;fill:rgb(100%,100%,100%);fill-opacity:1;" d="M 699.765625 575 C 710.933594 575 722.097656 575 733.601562 575 C 748.78125 612.664062 763.953125 650.328125 779.023438 688.023438 C 781.640625 694.5625 784.261719 701.101562 786.890625 707.640625 C 788.644531 712 790.394531 716.359375 792.144531 720.722656 C 792.964844 722.773438 793.792969 724.828125 794.621094 726.878906 C 795.746094 729.675781 796.871094 732.476562 797.992188 735.277344 C 798.328125 736.105469 798.660156 736.933594 799.007812 737.785156 C 801.273438 743.464844 801.273438 743.464844 801.273438 746.25 C 790.613281 746.25 779.957031 746.25 768.976562 746.25 C 765.9375 739.019531 762.898438 731.789062 759.859375 724.558594 C 758.828125 722.097656 757.792969 719.640625 756.757812 717.179688 C 755.273438 713.644531 753.789062 710.109375 752.304688 706.578125 C 751.839844 705.476562 751.378906 704.375 750.902344 703.238281 C 750.46875 702.214844 750.039062 701.1875 749.59375 700.128906 C 749.214844 699.226562 748.835938 698.324219 748.445312 697.398438 C 747.589844 695.351562 746.746094 693.300781 745.90625 691.25 C 726.113281 691.25 706.320312 691.25 685.925781 691.25 C 684.390625 695.117188 682.851562 698.980469 681.269531 702.964844 C 679.785156 706.691406 678.296875 710.417969 676.8125 714.144531 C 675.773438 716.742188 674.742188 719.34375 673.710938 721.941406 C 672.230469 725.667969 670.742188 729.394531 669.253906 733.121094 C 668.792969 734.289062 668.328125 735.457031 667.851562 736.664062 C 667.421875 737.738281 666.988281 738.816406 666.546875 739.925781 C 666.167969 740.875 665.785156 741.828125 665.398438 742.808594 C 664.394531 745 664.394531 745 662.855469 746.25 C 660.566406 746.359375 658.269531 746.382812 655.976562 746.371094 C 654.59375 746.367188 653.210938 746.363281 651.789062 746.359375 C 650.332031 746.347656 648.878906 746.339844 647.378906 746.328125 C 645.921875 746.324219 644.460938 746.316406 642.957031 746.3125 C 639.335938 746.296875 635.714844 746.277344 632.097656 746.25 C 632.941406 739.5625 634.375 733.660156 636.996094 727.246094 C 637.507812 725.984375 637.507812 725.984375 638.03125 724.695312 C 639.15625 721.917969 640.296875 719.152344 641.4375 716.382812 C 642.242188 714.410156 643.042969 712.441406 643.84375 710.46875 C 645.980469 705.21875 648.128906 699.972656 650.28125 694.726562 C 652.496094 689.316406 654.703125 683.90625 656.90625 678.492188 C 659.53125 672.046875 662.160156 665.601562 664.789062 659.15625 C 669.644531 647.269531 674.464844 635.371094 679.207031 623.453125 C 679.710938 622.1875 680.214844 620.921875 680.734375 619.621094 C 682.542969 615.078125 684.347656 610.535156 686.144531 605.992188 C 687.308594 603.039062 688.484375 600.089844 689.65625 597.140625 C 689.972656 596.328125 690.289062 595.519531 690.617188 594.683594 C 693.300781 587.953125 696.507812 581.621094 699.765625 575 Z M 715.144531 615 C 712.296875 621.917969 709.449219 628.839844 706.605469 635.757812 C 705.636719 638.117188 704.664062 640.472656 703.695312 642.828125 C 702.304688 646.207031 700.914062 649.585938 699.527344 652.964844 C 699.089844 654.023438 698.652344 655.082031 698.203125 656.175781 C 696.09375 660.5 696.09375 660.5 695.152344 665 C 708.855469 665 722.558594 665 736.679688 665 C 734.113281 658.277344 731.546875 651.558594 728.960938 644.84375 C 728.085938 642.558594 727.210938 640.269531 726.339844 637.984375 C 725.089844 634.699219 723.824219 631.417969 722.558594 628.132812 C 722.171875 627.109375 721.785156 626.082031 721.382812 625.023438 C 719.347656 619.515625 719.347656 619.515625 715.144531 615 Z M 715.144531 615 "/>
<path style=" stroke:none;fill-rule:nonzero;fill:rgb(100%,100%,100%);fill-opacity:1;" d="M 422.9375 575 C 433.085938 575 443.238281 575 453.695312 575 C 453.695312 631.511719 453.695312 688.023438 453.695312 746.25 C 443.542969 746.25 433.394531 746.25 422.9375 746.25 C 422.9375 689.738281 422.9375 633.226562 422.9375 575 Z M 422.9375 575 "/>
<path style=" stroke:none;fill-rule:nonzero;fill:rgb(100%,100%,100%);fill-opacity:1;" d="M 450.621094 785 C 453.15625 785 455.695312 785 458.308594 785 C 458.851562 785.820312 459.394531 786.640625 459.953125 787.484375 C 462.410156 791.191406 464.878906 794.890625 467.34375 798.59375 C 468.199219 799.882812 469.054688 801.175781 469.933594 802.503906 C 470.757812 803.738281 471.578125 804.96875 472.425781 806.242188 C 473.183594 807.378906 473.941406 808.519531 474.722656 809.691406 C 476.660156 812.621094 476.660156 812.621094 479.839844 815 C 486.4375 805.101562 493.035156 795.199219 499.832031 785 C 502.878906 785 505.925781 785 509.0625 785 C 509.0625 799.023438 509.0625 813.050781 509.0625 827.5 C 506.015625 827.5 502.972656 827.5 499.832031 827.5 C 499.324219 820.074219 498.820312 812.648438 498.296875 805 C 493.21875 812.425781 488.144531 819.851562 482.917969 827.5 C 475.226562 826.25 475.226562 826.25 472.941406 824.042969 C 472.335938 823.105469 471.734375 822.171875 471.109375 821.207031 C 470.441406 820.195312 469.773438 819.183594 469.082031 818.140625 C 468.078125 816.546875 468.078125 816.546875 467.054688 814.921875 C 466.007812 813.320312 466.007812 813.320312 464.9375 811.6875 C 463.21875 809.050781 461.527344 806.402344 459.847656 803.75 C 459.339844 811.585938 458.832031 819.425781 458.308594 827.5 C 455.769531 827.5 453.234375 827.5 450.621094 827.5 C 450.621094 813.476562 450.621094 799.449219 450.621094 785 Z M 450.621094 785 "/>
<path style=" stroke:none;fill-rule:nonzero;fill:rgb(100%,100%,100%);fill-opacity:1;" d="M 819.726562 785 C 827.417969 785 827.417969 785 829.953125 786.449219 C 830.683594 787.117188 831.410156 787.785156 832.164062 788.476562 C 832.984375 789.214844 833.808594 789.957031 834.65625 790.71875 C 835.925781 791.910156 835.925781 791.910156 837.222656 793.125 C 838.097656 793.921875 838.976562 794.71875 839.882812 795.539062 C 842.410156 797.847656 844.914062 800.167969 847.410156 802.5 C 848.613281 803.605469 849.8125 804.707031 851.050781 805.84375 C 852.835938 807.492188 854.613281 809.144531 856.375 810.804688 C 857.449219 811.816406 858.550781 812.804688 859.714844 813.75 C 860.222656 804.261719 860.730469 794.773438 861.25 785 C 863.789062 785 866.328125 785 868.941406 785 C 868.941406 799.023438 868.941406 813.050781 868.941406 827.5 C 861.25 827.5 861.25 827.5 857.285156 824.703125 C 855.894531 823.4375 854.527344 822.15625 853.175781 820.859375 C 852.453125 820.191406 851.730469 819.519531 850.984375 818.832031 C 843.945312 812.28125 837.191406 805.53125 830.492188 798.75 C 829.984375 808.238281 829.476562 817.726562 828.953125 827.5 C 825.910156 827.5 822.863281 827.5 819.726562 827.5 C 819.726562 813.476562 819.726562 799.449219 819.726562 785 Z M 819.726562 785 "/>
<path style=" stroke:none;fill-rule:nonzero;fill:rgb(100%,100%,100%);fill-opacity:1;" d="M 935.597656 785.898438 C 939.976562 787.765625 942.511719 789.648438 944.972656 793.125 C 945.839844 796.25 945.839844 796.25 945.839844 801.25 C 943.300781 801.25 940.761719 801.25 938.148438 801.25 C 937.453125 800.039062 936.753906 798.828125 936.035156 797.578125 C 934.0625 793.660156 934.0625 793.660156 930.460938 792.5 C 927.933594 792.378906 925.398438 792.335938 922.867188 792.34375 C 921.519531 792.339844 920.171875 792.335938 918.785156 792.335938 C 914.859375 792.378906 914.859375 792.378906 910.464844 793.75 C 910.464844 795.398438 910.464844 797.050781 910.464844 798.75 C 913.328125 799.339844 913.328125 799.339844 916.25 799.941406 C 918.777344 800.480469 921.300781 801.019531 923.828125 801.5625 C 925.082031 801.820312 926.339844 802.074219 927.632812 802.339844 C 934.894531 803.914062 940.566406 805.390625 945.839844 810 C 947.34375 813.875 947.117188 817.332031 945.839844 821.25 C 937.597656 827.203125 929.972656 827.859375 919.382812 827.777344 C 912.273438 827.320312 907.445312 825.359375 901.429688 822.265625 C 898.527344 818.460938 898.609375 814.417969 898.164062 810 C 901.207031 810 904.253906 810 907.390625 810 C 907.769531 811.1875 908.152344 812.371094 908.542969 813.59375 C 909.949219 817.53125 909.949219 817.53125 913.230469 818.976562 C 916.898438 820.085938 919.636719 820.335938 923.539062 820.3125 C 924.695312 820.320312 925.855469 820.324219 927.046875 820.332031 C 930.960938 819.953125 933.367188 819.328125 936.609375 817.5 C 937.582031 814.953125 937.582031 814.953125 938.148438 812.5 C 935.480469 812.023438 935.480469 812.023438 932.753906 811.539062 C 930.386719 811.105469 928.019531 810.667969 925.652344 810.234375 C 924.484375 810.027344 923.3125 809.820312 922.109375 809.605469 C 905.476562 806.519531 905.476562 806.519531 900.566406 801.484375 C 899.34375 797.617188 899.867188 795.074219 901.238281 791.25 C 909.320312 783.148438 923.839844 782.964844 935.597656 785.898438 Z M 935.597656 785.898438 "/>
<path style=" stroke:none;fill-rule:nonzero;fill:rgb(100%,100%,100%);fill-opacity:1;" d="M 287.597656 785 C 292.703125 784.921875 297.808594 784.84375 303.070312 784.765625 C 304.660156 784.730469 306.25 784.699219 307.882812 784.664062 C 316.6875 784.597656 322.953125 785.183594 330.660156 788.75 C 334.480469 793.40625 334.320312 795.734375 333.734375 801.25 C 331.429688 804.921875 331.429688 804.921875 329.121094 807.5 C 330.136719 808.324219 331.152344 809.148438 332.195312 810 C 332.496094 814.070312 332.496094 814.070312 332.390625 818.90625 C 332.363281 820.507812 332.332031 822.109375 332.304688 823.757812 C 332.269531 824.992188 332.234375 826.226562 332.195312 827.5 C 329.660156 827.5 327.121094 827.5 324.507812 827.5 C 324.449219 826.535156 324.390625 825.574219 324.332031 824.578125 C 324.230469 823.328125 324.132812 822.074219 324.027344 820.78125 C 323.9375 819.535156 323.847656 818.285156 323.757812 817 C 323.496094 815.929688 323.238281 814.855469 322.96875 813.75 C 317.429688 810.75 312.960938 810.703125 306.53125 810.46875 C 305.453125 810.421875 304.375 810.371094 303.261719 810.320312 C 300.605469 810.203125 297.945312 810.101562 295.285156 810 C 295.285156 815.773438 295.285156 821.550781 295.285156 827.5 C 292.75 827.5 290.210938 827.5 287.597656 827.5 C 287.597656 813.476562 287.597656 799.449219 287.597656 785 Z M 295.285156 791.25 C 295.285156 795.375 295.285156 799.5 295.285156 803.75 C 299.003906 803.851562 302.71875 803.925781 306.4375 803.984375 C 307.484375 804.015625 308.535156 804.046875 309.613281 804.078125 C 314.480469 804.136719 317.839844 803.980469 322.152344 802.070312 C 324.921875 800.054688 324.921875 800.054688 324.890625 796.640625 C 324.703125 795.210938 324.703125 795.210938 324.507812 793.75 C 318.75 790.6875 313.0625 790.960938 306.4375 791.09375 C 304.828125 791.109375 304.828125 791.109375 303.1875 791.128906 C 300.550781 791.15625 297.917969 791.203125 295.285156 791.25 Z M 295.285156 791.25 "/>
<path style=" stroke:none;fill-rule:nonzero;fill:rgb(100%,100%,100%);fill-opacity:1;" d="M 585.191406 788.59375 C 594.835938 795.257812 594.835938 795.257812 595.554688 802.40625 C 595.859375 813.824219 595.859375 813.824219 592.589844 819.53125 C 584.996094 825.871094 577.757812 827.65625 567.117188 827.890625 C 558.78125 827.816406 552.726562 826.511719 545.972656 822.5 C 538.78125 816.355469 537.820312 811.324219 537.953125 803.128906 C 538.566406 797.292969 541.328125 793.808594 546.261719 789.6875 C 558.101562 783.699219 572.890625 783.238281 585.191406 788.59375 Z M 550.007812 796.484375 C 546.945312 800.796875 546.078125 803.769531 545.972656 808.75 C 547.925781 813.515625 550.039062 815.847656 554.621094 819.21875 C 561.28125 821.824219 566.394531 822.117188 573.65625 821.25 C 579.140625 819.679688 581.996094 818.339844 585.765625 814.765625 C 588.683594 808.84375 588.582031 803.726562 585.957031 797.734375 C 581.628906 793.882812 576.765625 792.4375 570.578125 791.25 C 562.410156 791.25 556.160156 791.878906 550.007812 796.484375 Z M 550.007812 796.484375 "/>
<path style=" stroke:none;fill-rule:nonzero;fill:rgb(100%,100%,100%);fill-opacity:1;" d="M 409.863281 788.59375 C 419.511719 795.257812 419.511719 795.257812 420.226562 802.40625 C 420.535156 813.824219 420.535156 813.824219 417.265625 819.53125 C 409.667969 825.871094 402.433594 827.65625 391.792969 827.890625 C 383.457031 827.816406 377.398438 826.511719 370.644531 822.5 C 363.457031 816.355469 362.492188 811.324219 362.625 803.128906 C 363.242188 797.292969 366.003906 793.808594 370.933594 789.6875 C 382.777344 783.699219 397.5625 783.238281 409.863281 788.59375 Z M 374.683594 796.484375 C 371.617188 800.796875 370.753906 803.769531 370.644531 808.75 C 372.601562 813.515625 374.714844 815.847656 379.296875 819.21875 C 385.957031 821.824219 391.070312 822.117188 398.328125 821.25 C 403.816406 819.679688 406.667969 818.339844 410.441406 814.765625 C 413.355469 808.84375 413.253906 803.726562 410.632812 797.734375 C 406.300781 793.882812 401.441406 792.4375 395.253906 791.25 C 387.085938 791.25 380.835938 791.878906 374.683594 796.484375 Z M 374.683594 796.484375 "/>
<path style=" stroke:none;fill-rule:nonzero;fill:rgb(100%,100%,100%);fill-opacity:1;" d="M 782.816406 790 C 790.324219 796.761719 791.050781 801.074219 790.933594 810.019531 C 790.355469 815.050781 788.621094 817.601562 784.355469 821.25 C 774.175781 827.496094 766.039062 828.265625 753.59375 827.5 C 744.824219 825.9375 740.222656 821.960938 735.140625 816.25 C 731.921875 811.015625 732.949219 804.449219 733.601562 798.75 C 737.113281 792.605469 741.683594 789.453125 748.980469 786.25 C 760.003906 783.601562 773.242188 784.8125 782.816406 790 Z M 744.921875 796.671875 C 741.066406 800.503906 741.105469 805.191406 741.292969 810 C 743.476562 814.082031 746.308594 817.148438 750.519531 820 C 758.554688 822.175781 766.148438 822.015625 774.164062 819.84375 C 779.304688 816.859375 780.914062 814.910156 782.816406 810 C 783.390625 803.6875 782.472656 799.914062 777.433594 795 C 766.949219 789.113281 754.582031 790.273438 744.921875 796.671875 Z M 744.921875 796.671875 "/>
<path style=" stroke:none;fill-rule:nonzero;fill:rgb(100%,100%,100%);fill-opacity:1;" d="M 212.238281 785 C 217.089844 784.921875 221.945312 784.84375 226.945312 784.765625 C 228.453125 784.730469 229.960938 784.699219 231.511719 784.664062 C 241.316406 784.585938 249.277344 785.339844 256.742188 791.015625 C 259.402344 795.464844 259.0625 799.292969 257.414062 803.984375 C 254.226562 807.402344 250.960938 808.398438 246.070312 810 C 241.5 810.429688 237.015625 810.359375 232.421875 810.234375 C 230.613281 810.210938 230.613281 810.210938 228.769531 810.183594 C 225.820312 810.140625 222.875 810.070312 219.925781 810 C 219.925781 815.773438 219.925781 821.550781 219.925781 827.5 C 217.390625 827.5 214.851562 827.5 212.238281 827.5 C 212.238281 813.476562 212.238281 799.449219 212.238281 785 Z M 219.925781 791.25 C 219.925781 795.375 219.925781 799.5 219.925781 803.75 C 223.933594 803.816406 227.9375 803.867188 231.941406 803.90625 C 233.644531 803.9375 233.644531 803.9375 235.382812 803.96875 C 241.324219 804.011719 244.085938 803.992188 249.148438 801.25 C 250.046875 798.179688 250.046875 798.179688 249.148438 795 C 245.265625 791.628906 243.085938 791.253906 237.347656 790.882812 C 235.257812 790.910156 233.167969 790.953125 231.078125 791.015625 C 230.003906 791.03125 228.933594 791.050781 227.828125 791.066406 C 225.191406 791.109375 222.558594 791.179688 219.925781 791.25 Z M 219.925781 791.25 "/>
<path style=" stroke:none;fill-rule:nonzero;fill:rgb(100%,100%,100%);fill-opacity:1;" d="M 621.332031 785 C 636.558594 785 651.78125 785 667.46875 785 C 667.46875 787.0625 667.46875 789.125 667.46875 791.25 C 661.378906 791.25 655.289062 791.25 649.015625 791.25 C 649.015625 803.210938 649.015625 815.175781 649.015625 827.5 C 646.476562 827.5 643.9375 827.5 641.324219 827.5 C 641.324219 815.539062 641.324219 803.574219 641.324219 791.25 C 634.726562 791.25 628.128906 791.25 621.332031 791.25 C 621.332031 789.1875 621.332031 787.125 621.332031 785 Z M 621.332031 785 "/>
<path style=" stroke:none;fill-rule:nonzero;fill:rgb(100%,100%,100%);fill-opacity:1;" d="M 695.152344 785 C 697.691406 785 700.226562 785 702.84375 785 C 702.84375 799.023438 702.84375 813.050781 702.84375 827.5 C 700.304688 827.5 697.769531 827.5 695.152344 827.5 C 695.152344 813.476562 695.152344 799.449219 695.152344 785 Z M 695.152344 785 "/>
</g>
</svg>
